<svg width="163" height="133" viewBox="0 0 163 133" fill="none" xmlns="http://www.w3.org/2000/svg">
<g filter="url(#filter0_f_99_134)">
<circle cx="112.5" cy="114.5" r="7.5" fill="#D9D9D9"/>
<circle cx="112.5" cy="114.5" r="7.25" stroke="#979797" stroke-width="0.5"/>
</g>
<g filter="url(#filter1_f_99_134)">
<ellipse cx="83" cy="115.5" rx="8" ry="7.5" fill="#D9D9D9"/>
<path d="M83 108.25C87.2957 108.25 90.75 111.511 90.75 115.5C90.75 119.489 87.2957 122.75 83 122.75C78.7043 122.75 75.25 119.489 75.25 115.5C75.25 111.511 78.7043 108.25 83 108.25Z" stroke="#979797" stroke-width="0.5"/>
</g>
<g filter="url(#filter2_f_99_134)">
<ellipse cx="96.0103" cy="114.931" rx="8.58422" ry="8.5" transform="rotate(2.95003 96.0103 114.931)" fill="#D9D9D9"/>
<path d="M96.4346 106.691C101.034 106.928 104.567 110.811 104.333 115.359C104.099 119.907 100.185 123.407 95.5854 123.17C90.9865 122.932 87.4527 119.05 87.6871 114.502C87.9215 109.954 91.8356 106.455 96.4346 106.691Z" stroke="#979797" stroke-width="0.5"/>
</g>
<g filter="url(#filter3_f_99_134)">
<circle cx="64" cy="111" r="6" fill="#D9D9D9"/>
<circle cx="64" cy="111" r="5.75" stroke="#979797" stroke-width="0.5"/>
</g>
<g filter="url(#filter4_f_99_134)">
<path d="M89.3621 123.5C89.3621 127.366 86.2281 130.5 82.3621 130.5C78.4961 130.5 75.3621 127.366 75.3621 123.5C75.3621 119.634 78.4961 116.5 82.3621 116.5C86.2281 116.5 89.3621 119.634 89.3621 123.5Z" fill="#D9D9D9"/>
<path d="M82.3621 116.75C86.09 116.75 89.1121 119.772 89.1121 123.5C89.1121 127.228 86.09 130.25 82.3621 130.25C78.6342 130.25 75.6121 127.228 75.6121 123.5C75.6121 119.772 78.6342 116.75 82.3621 116.75Z" stroke="#979797" stroke-width="0.5"/>
</g>
<circle cx="123.5" cy="15.5" r="11.5" fill="white"/>
<circle cx="146.5" cy="11.5" r="11.5" fill="white"/>
<rect x="62.5156" y="23.6443" width="77.0836" height="2" rx="1" transform="rotate(69.3277 62.5156 23.6443)" fill="#6A00FF" stroke="#FFBB00"/>
<rect x="110.516" y="27.6443" width="77.0836" height="2" rx="1" transform="rotate(69.3277 110.516 27.6443)" fill="#6A00FF" stroke="#FFBB00"/>
<rect x="86.7576" y="25.5408" width="77.8093" height="2" rx="1" transform="rotate(69.3277 86.7576 25.5408)" fill="#6A00FF" stroke="#FFBB00"/>
<rect x="136.248" y="37.1863" width="45.187" height="2" rx="1" transform="rotate(69.3277 136.248 37.1863)" fill="#6A00FF" stroke="#FFBB00"/>
<rect x="0.528298" y="-0.47732" width="103.227" height="2.0012" rx="1.0006" transform="matrix(0.999045 0.0437026 0.057551 -0.998343 51.028 43.0193)" fill="#6A00FF" stroke="#FFBB00"/>
<rect x="0.528298" y="-0.47732" width="66.2539" height="2.0012" rx="1.0006" transform="matrix(0.999045 0.0437026 0.057551 -0.998343 72.2421 87.4995)" fill="#6A00FF" stroke="#FFBB00"/>
<rect x="0.528298" y="-0.47732" width="86.8194" height="2.0012" rx="1.0006" transform="matrix(0.999045 0.0437026 0.057551 -0.998343 64.4782 65.6471)" fill="#6A00FF" stroke="#FFBB00"/>
<path d="M65.168 19.5H138.483C147.598 19.5 155.186 26.4957 155.926 35.5801L159.833 83.5801C160.663 93.7712 152.615 102.5 142.391 102.5H86.377C79.4476 102.5 73.1709 98.4113 70.3701 92.0732L49.1602 44.0732C44.0484 32.5045 52.5203 19.5 65.168 19.5Z" stroke="#FFBB00" stroke-width="3"/>
<path d="M96.9998 114C100.866 114 104 117.134 104 121C104 124.822 100.982 127.764 96.9412 128.002C94.4887 128.146 92.8779 127.989 91.827 127.664C90.8164 127.351 90.3778 126.903 90.1473 126.436C89.8871 125.908 89.8132 125.201 89.8436 124.228C89.8585 123.749 89.8954 123.251 89.9315 122.702C89.9668 122.163 89.9998 121.587 89.9998 121C89.9998 117.134 93.1339 114 96.9998 114Z" fill="#FFBB00" stroke="#6A00FF" stroke-width="2"/>
<circle cx="123.5" cy="15.5" r="11" fill="white" fill-opacity="0.1" stroke="black"/>
<path d="M119 109C122.866 109 126 112.134 126 116C126 119.875 122.977 123.5 118 123.5C115.544 123.5 114.008 123.246 113.061 122.865C112.17 122.508 111.85 122.064 111.703 121.604C111.527 121.049 111.554 120.326 111.68 119.315C111.797 118.374 112 117.187 112 116C112 112.134 115.134 109 119 109Z" fill="#FFBB00" stroke="#6A00FF" stroke-width="2"/>
<circle cx="146.5" cy="11.5" r="11" fill="white" fill-opacity="0.1" stroke="black"/>
<circle cx="127" cy="15" r="7" fill="#40A8F3"/>
<circle cx="150" cy="11" r="7" fill="#1C9C03"/>
<circle cx="128.5" cy="14.5" r="5.5" fill="black"/>
<circle cx="151.5" cy="10.5" r="5.5" fill="black"/>
<g filter="url(#filter7_f_99_134)">
<circle cx="52" cy="105" r="3" fill="#D9D9D9"/>
<circle cx="52" cy="105" r="2.75" stroke="#979797" stroke-width="0.5"/>
</g>
<path d="M124 12C125.393 12 126 11.414 126 10C126 11.414 126.603 12 128 12C126.603 12 126 12.6029 126 14C126 12.6029 125.393 12 124 12Z" fill="white"/>
<path d="M147 9C148.393 9 149 8.414 149 7C149 8.414 149.603 9 151 9C149.603 9 149 9.60289 149 11C149 9.60289 148.393 9 147 9Z" fill="white"/>
<path d="M127 13C128.393 13 129 12.414 129 11C129 12.414 129.603 13 131 13C129.603 13 129 13.6029 129 15C129 13.6029 128.393 13 127 13Z" fill="white"/>
<rect x="21" y="14.3443" width="43" height="4" rx="2" transform="rotate(-7.13948 21 14.3443)" fill="#FFBB00"/>
<rect y="59" width="52" height="3" fill="url(#paint0_linear_99_134)"/>
<rect x="13" y="70" width="52" height="3" fill="url(#paint1_linear_99_134)"/>
<rect x="2" y="78" width="21" height="3" fill="url(#paint2_linear_99_134)"/>
<defs>
<filter id="filter0_f_99_134" x="103.2" y="105.2" width="18.6" height="18.6" filterUnits="userSpaceOnUse" color-interpolation-filters="sRGB">
<feFlood flood-opacity="0" result="BackgroundImageFix"/>
<feBlend mode="normal" in="SourceGraphic" in2="BackgroundImageFix" result="shape"/>
<feGaussianBlur stdDeviation="0.9" result="effect1_foregroundBlur_99_134"/>
</filter>
<filter id="filter1_f_99_134" x="73.2" y="106.2" width="19.6" height="18.6" filterUnits="userSpaceOnUse" color-interpolation-filters="sRGB">
<feFlood flood-opacity="0" result="BackgroundImageFix"/>
<feBlend mode="normal" in="SourceGraphic" in2="BackgroundImageFix" result="shape"/>
<feGaussianBlur stdDeviation="0.9" result="effect1_foregroundBlur_99_134"/>
</filter>
<filter id="filter2_f_99_134" x="85.6261" y="104.63" width="20.7684" height="20.6009" filterUnits="userSpaceOnUse" color-interpolation-filters="sRGB">
<feFlood flood-opacity="0" result="BackgroundImageFix"/>
<feBlend mode="normal" in="SourceGraphic" in2="BackgroundImageFix" result="shape"/>
<feGaussianBlur stdDeviation="0.9" result="effect1_foregroundBlur_99_134"/>
</filter>
<filter id="filter3_f_99_134" x="56.2" y="103.2" width="15.6" height="15.6" filterUnits="userSpaceOnUse" color-interpolation-filters="sRGB">
<feFlood flood-opacity="0" result="BackgroundImageFix"/>
<feBlend mode="normal" in="SourceGraphic" in2="BackgroundImageFix" result="shape"/>
<feGaussianBlur stdDeviation="0.9" result="effect1_foregroundBlur_99_134"/>
</filter>
<filter id="filter4_f_99_134" x="73.5621" y="114.7" width="17.6" height="17.6" filterUnits="userSpaceOnUse" color-interpolation-filters="sRGB">
<feFlood flood-opacity="0" result="BackgroundImageFix"/>
<feBlend mode="normal" in="SourceGraphic" in2="BackgroundImageFix" result="shape"/>
<feGaussianBlur stdDeviation="0.9" result="effect1_foregroundBlur_99_134"/>
</filter>
<filter id="filter7_f_99_134" x="47.2" y="100.2" width="9.6" height="9.6" filterUnits="userSpaceOnUse" color-interpolation-filters="sRGB">
<feFlood flood-opacity="0" result="BackgroundImageFix"/>
<feBlend mode="normal" in="SourceGraphic" in2="BackgroundImageFix" result="shape"/>
<feGaussianBlur stdDeviation="0.9" result="effect1_foregroundBlur_99_134"/>
</filter>
<linearGradient id="paint0_linear_99_134" x1="20" y1="21.5" x2="6" y2="74" gradientUnits="userSpaceOnUse">
<stop stop-color="#6A00FF"/>
<stop offset="1" stop-color="#B1FFA1"/>
</linearGradient>
<linearGradient id="paint1_linear_99_134" x1="33" y1="32.5" x2="19" y2="85" gradientUnits="userSpaceOnUse">
<stop stop-color="#6A00FF"/>
<stop offset="1" stop-color="#B1FFA1"/>
</linearGradient>
<linearGradient id="paint2_linear_99_134" x1="10.0769" y1="40.5" x2="-15.7806" y2="79.6592" gradientUnits="userSpaceOnUse">
<stop stop-color="#6A00FF"/>
<stop offset="1" stop-color="#B1FFA1"/>
</linearGradient>
</defs>
</svg>
